<?xml version="1.0" encoding="UTF-8"?>
<svg xmlns="http://www.w3.org/2000/svg" width="256" height="256" viewBox="0 0 256 256" aria-labelledby="chart_dark_idsvg" role="img">
  <defs>
    <filter id="glow_chart_dark_svg" x="-50%" y="-50%" width="200%" height="200%">
      <feGaussianBlur stdDeviation="8" result="coloredBlur"/>
      <feMerge>
        <feMergeNode in="coloredBlur"/>
        <feMergeNode in="SourceGraphic"/>
      </feMerge>
    </filter>
  </defs>
  <title id="chart_dark_idsvg">Chart — dark (cyan)</title>
  <rect x="20" y="20" width="216" height="216" rx="20" ry="20" fill="rgba(0,207,230,0.02)" stroke="#00cfe6" stroke-width="6" filter="url(#glow_chart_dark_svg)" />
  <g stroke="#00cfe6" stroke-width="8" stroke-linecap="round" stroke-linejoin="round" fill="none" filter="url(#glow_cht_dark)">
    <rect x="64" y="64" width="128" height="128" rx="6" ry="6" fill="none" stroke="#00cfe6" stroke-width="4"/>
    <!-- grid -->
    <g stroke="#063f45" stroke-width="2" opacity="0.22">
      <path d="M88 80 V184" />
      <path d="M112 80 V184" />
      <path d="M136 80 V184" />
      <path d="M160 80 V184" />
      <path d="M64 104 H192" />
      <path d="M64 128 H192" />
      <path d="M64 152 H192" />
    </g>
    <!-- polyline trend -->
    <polyline points="80,168 104,136 136,152 160,112 188,96" fill="none" stroke="#00cfe6" stroke-width="8" stroke-linejoin="round"/>
    <!-- points -->
    <circle cx="80" cy="168" r="6" fill="#00cfe6" />
    <circle cx="104" cy="136" r="6" fill="#00cfe6" />
    <circle cx="136" cy="152" r="6" fill="#00cfe6" />
    <circle cx="160" cy="112" r="6" fill="#00cfe6" />
    <circle cx="188" cy="96" r="6" fill="#00cfe6" />
  </g>
</svg>
