<svg xmlns="http://www.w3.org/2000/svg" viewBox="0 0 680 680" width="100%" height="100%">

<circle cx="340" cy="340" r="226" fill="none" stroke="#ffffff" stroke-width="2.5" opacity="0.30"/>
<circle cx="340" cy="340" r="207" fill="none" stroke="#ffffff" stroke-width="1.5" opacity="0.18"/>
<line x1="520" y1="340" x2="430" y2="496" stroke="#ffffff" stroke-width="5" stroke-linecap="round"/>
<line x1="430" y1="496" x2="250" y2="496" stroke="#ffffff" stroke-width="5" stroke-linecap="round"/>
<line x1="250" y1="496" x2="160" y2="340" stroke="#ffffff" stroke-width="5" stroke-linecap="round"/>
<line x1="160" y1="340" x2="250" y2="184" stroke="#ffffff" stroke-width="5" stroke-linecap="round"/>
<line x1="250" y1="184" x2="430" y2="184" stroke="#ffffff" stroke-width="5" stroke-linecap="round"/>
<line x1="430" y1="184" x2="520" y2="340" stroke="#ffffff" stroke-width="5" stroke-linecap="round"/>
<line x1="496" y1="340" x2="382" y2="340" stroke="#ffffff" stroke-width="5" stroke-linecap="round"/>
<line x1="417" y1="479" x2="361" y2="375" stroke="#ffffff" stroke-width="5" stroke-linecap="round"/>
<line x1="263" y1="479" x2="319" y2="375" stroke="#ffffff" stroke-width="5" stroke-linecap="round"/>
<line x1="184" y1="340" x2="298" y2="340" stroke="#ffffff" stroke-width="5" stroke-linecap="round"/>
<line x1="263" y1="201" x2="319" y2="305" stroke="#ffffff" stroke-width="5" stroke-linecap="round"/>
<line x1="417" y1="201" x2="361" y2="305" stroke="#ffffff" stroke-width="5" stroke-linecap="round"/>
<polygon points="544,340 532,360.8 508,360.8 496,340 508,319.2 532,319.2" fill="rgba(0,0,0,0)" stroke="#ffffff" stroke-width="5" stroke-linejoin="round"/>
<polygon points="454,496 442,516.8 418,516.8 406,496 418,475.2 442,475.2" fill="rgba(0,0,0,0)" stroke="#ffffff" stroke-width="5" stroke-linejoin="round"/>
<polygon points="274,496 262,516.8 238,516.8 226,496 238,475.2 262,475.2" fill="rgba(0,0,0,0)" stroke="#ffffff" stroke-width="5" stroke-linejoin="round"/>
<polygon points="184,340 172,360.8 148,360.8 136,340 148,319.2 172,319.2" fill="rgba(0,0,0,0)" stroke="#ffffff" stroke-width="5" stroke-linejoin="round"/>
<polygon points="274,184 262,204.8 238,204.8 226,184 238,163.2 262,163.2" fill="rgba(0,0,0,0)" stroke="#ffffff" stroke-width="5" stroke-linejoin="round"/>
<polygon points="454,184 442,204.8 418,204.8 406,184 418,163.2 442,163.2" fill="rgba(0,0,0,0)" stroke="#ffffff" stroke-width="5" stroke-linejoin="round"/>
<polygon points="380,340 360,374.6 320,374.6 300,340 320,305.4 360,305.4" fill="none" stroke="#ffffff" stroke-width="5" stroke-linejoin="round"/>
</svg>